<svg xmlns="http://www.w3.org/2000/svg" viewBox="0 0 256 256" role="img" aria-label="Plugin icon">
  <defs>
    <linearGradient id="bg" x1="0" y1="0" x2="1" y2="1">
      <stop offset="0" stop-color="#1f6096"/>
      <stop offset="1" stop-color="#112f58"/>
    </linearGradient>
    <radialGradient id="lift" cx="35%" cy="25%" r="65%">
      <stop offset="0" stop-color="#ffffff" stop-opacity="0.12"/>
      <stop offset="1" stop-color="#ffffff" stop-opacity="0"/>
    </radialGradient>
    <filter id="shadow" x="-20%" y="-20%" width="140%" height="140%">
      <feDropShadow dx="3" dy="5" stdDeviation="5" flood-color="#000" flood-opacity="0.18"/>
    </filter>
  </defs>
  <rect width="256" height="256" fill="url(#bg)"/>
  <rect width="256" height="256" fill="url(#lift)"/>
  <path d="M0 210v46h256v-74c-38 24-78 39-119 39-52 0-96-8-137-11z" fill="#061f3c" opacity="0.22"/>
  <circle cx="128" cy="128" r="90" fill="#fff" filter="url(#shadow)"/>
  <g transform="translate(128 128) rotate(-45) translate(-128 -128)" fill="#2178b9">
    <rect x="117" y="76" width="22" height="104" rx="4"/>
    <rect x="90" y="101" width="30" height="46" rx="4"/>
    <rect x="137" y="101" width="30" height="46" rx="4"/>
    <rect x="88" y="87" width="12" height="25" rx="2"/>
    <rect x="157" y="87" width="12" height="25" rx="2"/>
    <rect x="122" y="176" width="12" height="29" rx="2"/>
  </g>
</svg>
